<svg xmlns="http://www.w3.org/2000/svg" xmlns:xlink="http://www.w3.org/1999/xlink" width="480" zoomAndPan="magnify" viewBox="0 0 360 359.999987" height="480" preserveAspectRatio="xMidYMid meet" version="1.0"><rect x="-36" width="432" fill="#ffffff" y="-35.999999" height="431.999984" fill-opacity="1"/><rect x="-36" width="432" fill="#ffffff" y="-35.999999" height="431.999984" fill-opacity="1"/><path fill="#bd00ff" d="M 203.441406 142.699219 L 203.441406 151.09375 L 219.726562 157.433594 L 203.441406 163.464844 L 203.441406 172.105469 L 231.335938 160.851562 L 231.335938 153.890625 Z M 203.441406 142.699219 " fill-opacity="1" fill-rule="nonzero"/><path fill="#000000" d="M 300.371094 196.289062 L 312.605469 196.289062 C 312.414062 191.503906 310.230469 189.453125 306.613281 189.453125 C 303.742188 189.453125 301.125 191.003906 300.371094 196.289062 M 306.863281 216.992188 C 297.441406 216.992188 291.011719 211.394531 291.011719 200.578125 L 291.011719 199.960938 C 291.011719 189.078125 297.8125 183.109375 306.550781 183.109375 C 314.664062 183.109375 321.464844 187.648438 321.464844 198.402344 L 321.464844 202.320312 L 300.25 202.320312 C 300.625 208.164062 303.117188 210.402344 307.050781 210.402344 C 310.542969 210.402344 312.414062 208.539062 313.042969 206.175781 L 321.464844 206.175781 C 320.46875 212.328125 315.414062 216.992188 306.863281 216.992188 M 269.226562 183.796875 L 278.339844 183.796875 L 278.339844 189.761719 C 280.273438 185.410156 283.332031 183.359375 288.136719 183.359375 L 288.136719 192.308594 C 281.957031 192.308594 278.339844 194.175781 278.339844 199.585938 L 278.339844 216.308594 L 269.226562 216.308594 Z M 262.609375 216.308594 L 253.496094 216.308594 L 253.496094 211.519531 C 251.9375 214.628906 248.878906 216.992188 244.007812 216.992188 C 238.144531 216.992188 233.835938 213.445312 233.835938 205.804688 L 233.835938 183.796875 L 243.011719 183.796875 L 243.011719 204.433594 C 243.011719 208.164062 244.507812 209.90625 247.753906 209.90625 C 250.9375 209.90625 253.496094 207.914062 253.496094 203.875 L 253.496094 183.796875 L 262.609375 183.796875 Z M 222.039062 173.972656 L 222.039062 183.796875 L 228.28125 183.796875 L 228.28125 190.566406 L 222.039062 190.566406 L 222.039062 205.988281 C 222.039062 208.414062 223.160156 209.53125 225.28125 209.53125 C 226.59375 209.53125 227.59375 209.34375 228.464844 208.976562 L 228.464844 216.058594 C 227.40625 216.371094 225.59375 216.742188 223.347656 216.742188 C 216.234375 216.742188 212.863281 213.511719 212.863281 206.917969 L 212.863281 190.566406 L 209.054688 190.566406 L 209.054688 183.796875 L 212.863281 183.796875 L 212.863281 177.699219 Z M 176.164062 183.796875 L 185.273438 183.796875 L 185.273438 188.644531 C 186.898438 185.597656 190.144531 183.109375 195.136719 183.109375 C 201.066406 183.109375 204.996094 186.65625 204.996094 194.546875 L 204.996094 216.308594 L 195.882812 216.308594 L 195.882812 195.914062 C 195.882812 192.125 194.324219 190.445312 191.015625 190.445312 C 187.832031 190.445312 185.273438 192.375 185.273438 196.476562 L 185.273438 216.308594 L 176.164062 216.308594 Z M 149.445312 196.289062 L 161.679688 196.289062 C 161.492188 191.503906 159.308594 189.453125 155.6875 189.453125 C 152.816406 189.453125 150.195312 191.003906 149.445312 196.289062 M 155.941406 216.992188 C 146.511719 216.992188 140.085938 211.394531 140.085938 200.578125 L 140.085938 199.960938 C 140.085938 189.078125 146.890625 183.109375 155.625 183.109375 C 163.738281 183.109375 170.542969 187.648438 170.542969 198.402344 L 170.542969 202.320312 L 149.324219 202.320312 C 149.695312 208.164062 152.195312 210.402344 156.125 210.402344 C 159.621094 210.402344 161.492188 208.539062 162.117188 206.175781 L 170.542969 206.175781 C 169.542969 212.328125 164.488281 216.992188 155.941406 216.992188 M 121.734375 216.992188 C 112.683594 216.992188 106.128906 211.394531 106.128906 200.390625 L 106.128906 199.960938 C 106.128906 188.957031 113.121094 183.109375 121.792969 183.109375 C 129.222656 183.109375 135.339844 186.839844 136.089844 195.355469 L 127.351562 195.355469 C 126.789062 192.1875 125.167969 190.136719 121.984375 190.136719 C 118.109375 190.136719 115.429688 193.179688 115.429688 199.585938 L 115.429688 200.578125 C 115.429688 207.171875 117.800781 210.15625 122.046875 210.15625 C 125.167969 210.15625 127.472656 207.855469 127.972656 204.308594 L 136.273438 204.308594 C 135.652344 211.707031 130.59375 216.992188 121.734375 216.992188 M 87.777344 216.992188 C 78.730469 216.992188 72.175781 211.394531 72.175781 200.390625 L 72.175781 199.960938 C 72.175781 188.957031 79.164062 183.109375 87.839844 183.109375 C 95.265625 183.109375 101.382812 186.839844 102.132812 195.355469 L 93.394531 195.355469 C 92.832031 192.1875 91.210938 190.136719 88.027344 190.136719 C 84.15625 190.136719 81.472656 193.179688 81.472656 199.585938 L 81.472656 200.578125 C 81.472656 207.171875 83.847656 210.15625 88.089844 210.15625 C 91.210938 210.15625 93.519531 207.855469 94.019531 204.308594 L 102.320312 204.308594 C 101.695312 211.707031 96.640625 216.992188 87.777344 216.992188 M 58.003906 205.492188 L 58.003906 202.382812 L 54.382812 202.382812 C 49.890625 202.382812 47.582031 203.625 47.582031 206.546875 L 47.582031 206.859375 C 47.582031 209.097656 48.957031 210.648438 52.011719 210.648438 C 55.132812 210.648438 58.003906 208.910156 58.003906 205.492188 M 49.265625 216.992188 C 43.402344 216.992188 38.53125 214.007812 38.53125 207.414062 L 38.53125 207.046875 C 38.53125 199.023438 45.519531 196.414062 53.949219 196.414062 L 58.003906 196.414062 L 58.003906 194.863281 C 58.003906 191.625 56.566406 189.636719 53.199219 189.636719 C 50.140625 189.636719 48.519531 191.378906 48.265625 193.867188 L 39.53125 193.867188 C 40.152344 186.65625 45.894531 183.109375 53.636719 183.109375 C 61.5 183.109375 67.117188 186.46875 67.117188 194.546875 L 67.117188 216.308594 L 58.191406 216.308594 L 58.191406 212.578125 C 56.628906 214.941406 53.636719 216.992188 49.265625 216.992188 " fill-opacity="1" fill-rule="nonzero"/></svg>