<svg xmlns="http://www.w3.org/2000/svg" xmlns:xlink="http://www.w3.org/1999/xlink" width="480" zoomAndPan="magnify" viewBox="0 0 360 359.999987" height="480" preserveAspectRatio="xMidYMid meet" version="1.0"><defs><g/><clipPath id="51b5f0a92c"><rect x="0" width="279" y="0" height="157"/></clipPath><clipPath id="c393928e66"><rect x="0" width="276" y="0" height="46"/></clipPath></defs><rect x="-36" width="432" fill="#ffffff" y="-35.999999" height="431.999984" fill-opacity="1"/><rect x="-36" width="432" fill="#354671" y="-35.999999" height="431.999984" fill-opacity="1"/><g transform="matrix(1, 0, 0, 1, 36, 97)"><g clip-path="url(#51b5f0a92c)"><g fill="#ffffff" fill-opacity="1"><g transform="translate(0.00000386, 117.627787)"><g><path d="M 36.15625 -78.09375 C 44.382812 -78.09375 51.578125 -76.460938 57.734375 -73.203125 C 63.890625 -69.941406 68.65625 -65.363281 72.03125 -59.46875 C 75.40625 -53.570312 77.09375 -46.765625 77.09375 -39.046875 C 77.09375 -31.410156 75.40625 -24.625 72.03125 -18.6875 C 68.65625 -12.757812 63.867188 -8.160156 57.671875 -4.890625 C 51.484375 -1.628906 44.3125 0 36.15625 0 L 6.890625 0 L 6.890625 -78.09375 Z M 34.9375 -16.46875 C 42.125 -16.46875 47.71875 -18.429688 51.71875 -22.359375 C 55.726562 -26.285156 57.734375 -31.847656 57.734375 -39.046875 C 57.734375 -46.242188 55.726562 -51.84375 51.71875 -55.84375 C 47.71875 -59.851562 42.125 -61.859375 34.9375 -61.859375 L 25.921875 -61.859375 L 25.921875 -16.46875 Z M 34.9375 -16.46875 "/></g></g></g><g fill="#ffffff" fill-opacity="1"><g transform="translate(69.75817, 117.627787)"><g><path d="M 35.15625 0.890625 C 29.070312 0.890625 23.597656 -0.40625 18.734375 -3 C 13.878906 -5.59375 10.0625 -9.300781 7.28125 -14.125 C 4.5 -18.945312 3.109375 -24.582031 3.109375 -31.03125 C 3.109375 -37.414062 4.515625 -43.035156 7.328125 -47.890625 C 10.148438 -52.753906 14.007812 -56.484375 18.90625 -59.078125 C 23.800781 -61.671875 29.289062 -62.96875 35.375 -62.96875 C 41.457031 -62.96875 46.945312 -61.671875 51.84375 -59.078125 C 56.738281 -56.484375 60.59375 -52.753906 63.40625 -47.890625 C 66.226562 -43.035156 67.640625 -37.414062 67.640625 -31.03125 C 67.640625 -24.65625 66.210938 -19.035156 63.359375 -14.171875 C 60.503906 -9.316406 56.609375 -5.59375 51.671875 -3 C 46.742188 -0.40625 41.238281 0.890625 35.15625 0.890625 Z M 35.15625 -15.578125 C 38.789062 -15.578125 41.882812 -16.910156 44.4375 -19.578125 C 47 -22.242188 48.28125 -26.0625 48.28125 -31.03125 C 48.28125 -36.007812 47.035156 -39.832031 44.546875 -42.5 C 42.066406 -45.164062 39.007812 -46.5 35.375 -46.5 C 31.664062 -46.5 28.585938 -45.179688 26.140625 -42.546875 C 23.691406 -39.921875 22.46875 -36.082031 22.46875 -31.03125 C 22.46875 -26.0625 23.671875 -22.242188 26.078125 -19.578125 C 28.492188 -16.910156 31.519531 -15.578125 35.15625 -15.578125 Z M 35.15625 -15.578125 "/></g></g></g><g fill="#ffffff" fill-opacity="1"><g transform="translate(129.503191, 117.627787)"><g><path d="M 44.71875 -62.75 C 51.988281 -62.75 57.789062 -60.390625 62.125 -55.671875 C 66.46875 -50.960938 68.640625 -44.492188 68.640625 -36.265625 L 68.640625 0 L 49.734375 0 L 49.734375 -33.703125 C 49.734375 -37.859375 48.65625 -41.085938 46.5 -43.390625 C 44.351562 -45.691406 41.460938 -46.84375 37.828125 -46.84375 C 34.191406 -46.84375 31.296875 -45.691406 29.140625 -43.390625 C 26.992188 -41.085938 25.921875 -37.859375 25.921875 -33.703125 L 25.921875 0 L 6.890625 0 L 6.890625 -62.078125 L 25.921875 -62.078125 L 25.921875 -53.84375 C 27.847656 -56.59375 30.441406 -58.765625 33.703125 -60.359375 C 36.972656 -61.953125 40.644531 -62.75 44.71875 -62.75 Z M 44.71875 -62.75 "/></g></g></g><g fill="#ffffff" fill-opacity="1"><g transform="translate(193.36473, 117.627787)"><g><path d="M 65.421875 -32.046875 C 65.421875 -30.265625 65.304688 -28.410156 65.078125 -26.484375 L 22.03125 -26.484375 C 22.320312 -22.617188 23.5625 -19.664062 25.75 -17.625 C 27.9375 -15.59375 30.625 -14.578125 33.8125 -14.578125 C 38.5625 -14.578125 41.863281 -16.578125 43.71875 -20.578125 L 63.96875 -20.578125 C 62.925781 -16.503906 61.050781 -12.832031 58.34375 -9.5625 C 55.644531 -6.300781 52.253906 -3.742188 48.171875 -1.890625 C 44.085938 -0.0351562 39.523438 0.890625 34.484375 0.890625 C 28.398438 0.890625 22.984375 -0.40625 18.234375 -3 C 13.492188 -5.59375 9.785156 -9.300781 7.109375 -14.125 C 4.441406 -18.945312 3.109375 -24.582031 3.109375 -31.03125 C 3.109375 -37.488281 4.425781 -43.128906 7.0625 -47.953125 C 9.695312 -52.773438 13.382812 -56.484375 18.125 -59.078125 C 22.875 -61.671875 28.328125 -62.96875 34.484375 -62.96875 C 40.492188 -62.96875 45.832031 -61.707031 50.5 -59.1875 C 55.175781 -56.664062 58.832031 -53.066406 61.46875 -48.390625 C 64.101562 -43.722656 65.421875 -38.273438 65.421875 -32.046875 Z M 45.953125 -37.046875 C 45.953125 -40.304688 44.835938 -42.898438 42.609375 -44.828125 C 40.378906 -46.753906 37.597656 -47.71875 34.265625 -47.71875 C 31.078125 -47.71875 28.390625 -46.789062 26.203125 -44.9375 C 24.015625 -43.082031 22.660156 -40.453125 22.140625 -37.046875 Z M 45.953125 -37.046875 "/></g></g></g><g fill="#ffffff" fill-opacity="1"><g transform="translate(250.773342, 117.627787)"><g><path d="M 15.796875 0.890625 C 12.460938 0.890625 9.738281 -0.0859375 7.625 -2.046875 C 5.507812 -4.015625 4.453125 -6.445312 4.453125 -9.34375 C 4.453125 -12.3125 5.507812 -14.796875 7.625 -16.796875 C 9.738281 -18.796875 12.460938 -19.796875 15.796875 -19.796875 C 19.054688 -19.796875 21.742188 -18.796875 23.859375 -16.796875 C 25.972656 -14.796875 27.03125 -12.3125 27.03125 -9.34375 C 27.03125 -6.445312 25.972656 -4.015625 23.859375 -2.046875 C 21.742188 -0.0859375 19.054688 0.890625 15.796875 0.890625 Z M 15.796875 0.890625 "/></g></g></g></g></g><g transform="matrix(1, 0, 0, 1, 41, 209)"><g clip-path="url(#c393928e66)"><g fill="#ffffff" fill-opacity="1"><g transform="translate(0.991291, 34.068605)"><g><path d="M 5.296875 -2.328125 L 12.984375 -2.328125 L 12.984375 0 L 2.421875 0 L 2.421875 -21.96875 L 5.296875 -21.96875 Z M 5.296875 -2.328125 "/></g></g></g><g fill="#ffffff" fill-opacity="1"><g transform="translate(14.602109, 34.068605)"><g><path d="M 3.90625 -20.078125 C 3.363281 -20.078125 2.898438 -20.265625 2.515625 -20.640625 C 2.140625 -21.015625 1.953125 -21.476562 1.953125 -22.03125 C 1.953125 -22.570312 2.140625 -23.03125 2.515625 -23.40625 C 2.898438 -23.789062 3.363281 -23.984375 3.90625 -23.984375 C 4.4375 -23.984375 4.882812 -23.789062 5.25 -23.40625 C 5.613281 -23.03125 5.796875 -22.570312 5.796875 -22.03125 C 5.796875 -21.476562 5.613281 -21.015625 5.25 -20.640625 C 4.882812 -20.265625 4.4375 -20.078125 3.90625 -20.078125 Z M 5.296875 -17.265625 L 5.296875 0 L 2.421875 0 L 2.421875 -17.265625 Z M 5.296875 -17.265625 "/></g></g></g><g fill="#ffffff" fill-opacity="1"><g transform="translate(22.352711, 34.068605)"><g><path d="M 9.453125 -14.90625 L 5.828125 -14.90625 L 5.828125 0 L 2.96875 0 L 2.96875 -14.90625 L 0.71875 -14.90625 L 0.71875 -17.265625 L 2.96875 -17.265625 L 2.96875 -18.5 C 2.96875 -20.4375 3.460938 -21.847656 4.453125 -22.734375 C 5.453125 -23.628906 7.054688 -24.078125 9.265625 -24.078125 L 9.265625 -21.6875 C 8.003906 -21.6875 7.113281 -21.4375 6.59375 -20.9375 C 6.082031 -20.445312 5.828125 -19.632812 5.828125 -18.5 L 5.828125 -17.265625 L 9.453125 -17.265625 Z M 9.453125 -14.90625 "/></g></g></g><g fill="#ffffff" fill-opacity="1"><g transform="translate(32.718362, 34.068605)"><g><path d="M 18.1875 -9.296875 C 18.1875 -8.753906 18.15625 -8.175781 18.09375 -7.5625 L 4.28125 -7.5625 C 4.382812 -5.863281 4.96875 -4.535156 6.03125 -3.578125 C 7.09375 -2.617188 8.378906 -2.140625 9.890625 -2.140625 C 11.128906 -2.140625 12.164062 -2.425781 13 -3 C 13.832031 -3.582031 14.414062 -4.359375 14.75 -5.328125 L 17.84375 -5.328125 C 17.375 -3.671875 16.445312 -2.320312 15.0625 -1.28125 C 13.675781 -0.238281 11.953125 0.28125 9.890625 0.28125 C 8.253906 0.28125 6.789062 -0.0820312 5.5 -0.8125 C 4.207031 -1.550781 3.191406 -2.597656 2.453125 -3.953125 C 1.722656 -5.304688 1.359375 -6.878906 1.359375 -8.671875 C 1.359375 -10.453125 1.710938 -12.015625 2.421875 -13.359375 C 3.140625 -14.703125 4.144531 -15.734375 5.4375 -16.453125 C 6.726562 -17.179688 8.210938 -17.546875 9.890625 -17.546875 C 11.535156 -17.546875 12.988281 -17.1875 14.25 -16.46875 C 15.507812 -15.757812 16.476562 -14.78125 17.15625 -13.53125 C 17.84375 -12.28125 18.1875 -10.867188 18.1875 -9.296875 Z M 15.21875 -9.890625 C 15.21875 -10.984375 14.972656 -11.921875 14.484375 -12.703125 C 14.003906 -13.492188 13.347656 -14.09375 12.515625 -14.5 C 11.691406 -14.914062 10.773438 -15.125 9.765625 -15.125 C 8.316406 -15.125 7.082031 -14.660156 6.0625 -13.734375 C 5.039062 -12.816406 4.457031 -11.535156 4.3125 -9.890625 Z M 15.21875 -9.890625 "/></g></g></g><g fill="#ffffff" fill-opacity="1"><g transform="translate(52.252402, 34.068605)"><g/></g></g><g fill="#ffffff" fill-opacity="1"><g transform="translate(60.664643, 34.068605)"><g><path d="M 24.703125 -21.8125 L 24.703125 0 L 21.84375 0 L 21.84375 -16.265625 L 14.59375 0 L 12.578125 0 L 5.296875 -16.296875 L 5.296875 0 L 2.421875 0 L 2.421875 -21.8125 L 5.515625 -21.8125 L 13.578125 -3.78125 L 21.65625 -21.8125 Z M 24.703125 -21.8125 "/></g></g></g><g fill="#ffffff" fill-opacity="1"><g transform="translate(87.791752, 34.068605)"><g><path d="M 1.359375 -8.703125 C 1.359375 -10.460938 1.710938 -12.007812 2.421875 -13.34375 C 3.140625 -14.675781 4.125 -15.707031 5.375 -16.4375 C 6.625 -17.175781 8.015625 -17.546875 9.546875 -17.546875 C 11.054688 -17.546875 12.367188 -17.21875 13.484375 -16.5625 C 14.597656 -15.914062 15.429688 -15.101562 15.984375 -14.125 L 15.984375 -17.265625 L 18.875 -17.265625 L 18.875 0 L 15.984375 0 L 15.984375 -3.21875 C 15.410156 -2.207031 14.5625 -1.367188 13.4375 -0.703125 C 12.3125 -0.046875 11.003906 0.28125 9.515625 0.28125 C 7.984375 0.28125 6.597656 -0.09375 5.359375 -0.84375 C 4.117188 -1.601562 3.140625 -2.664062 2.421875 -4.03125 C 1.710938 -5.394531 1.359375 -6.953125 1.359375 -8.703125 Z M 15.984375 -8.671875 C 15.984375 -9.972656 15.71875 -11.101562 15.1875 -12.0625 C 14.664062 -13.03125 13.957031 -13.769531 13.0625 -14.28125 C 12.164062 -14.800781 11.179688 -15.0625 10.109375 -15.0625 C 9.046875 -15.0625 8.070312 -14.804688 7.1875 -14.296875 C 6.300781 -13.796875 5.59375 -13.0625 5.0625 -12.09375 C 4.539062 -11.132812 4.28125 -10.003906 4.28125 -8.703125 C 4.28125 -7.378906 4.539062 -6.226562 5.0625 -5.25 C 5.59375 -4.269531 6.300781 -3.519531 7.1875 -3 C 8.070312 -2.488281 9.046875 -2.234375 10.109375 -2.234375 C 11.179688 -2.234375 12.164062 -2.488281 13.0625 -3 C 13.957031 -3.519531 14.664062 -4.269531 15.1875 -5.25 C 15.71875 -6.226562 15.984375 -7.367188 15.984375 -8.671875 Z M 15.984375 -8.671875 "/></g></g></g><g fill="#ffffff" fill-opacity="1"><g transform="translate(109.090164, 34.068605)"><g><path d="M 10.84375 -17.578125 C 12.945312 -17.578125 14.648438 -16.941406 15.953125 -15.671875 C 17.253906 -14.398438 17.90625 -12.566406 17.90625 -10.171875 L 17.90625 0 L 15.0625 0 L 15.0625 -9.765625 C 15.0625 -11.492188 14.628906 -12.8125 13.765625 -13.71875 C 12.910156 -14.632812 11.738281 -15.09375 10.25 -15.09375 C 8.726562 -15.09375 7.519531 -14.617188 6.625 -13.671875 C 5.738281 -12.734375 5.296875 -11.359375 5.296875 -9.546875 L 5.296875 0 L 2.421875 0 L 2.421875 -17.265625 L 5.296875 -17.265625 L 5.296875 -14.8125 C 5.859375 -15.695312 6.628906 -16.378906 7.609375 -16.859375 C 8.585938 -17.335938 9.664062 -17.578125 10.84375 -17.578125 Z M 10.84375 -17.578125 "/></g></g></g><g fill="#ffffff" fill-opacity="1"><g transform="translate(129.254339, 34.068605)"><g><path d="M 1.359375 -8.703125 C 1.359375 -10.460938 1.710938 -12.007812 2.421875 -13.34375 C 3.140625 -14.675781 4.125 -15.707031 5.375 -16.4375 C 6.625 -17.175781 8.015625 -17.546875 9.546875 -17.546875 C 11.054688 -17.546875 12.367188 -17.21875 13.484375 -16.5625 C 14.597656 -15.914062 15.429688 -15.101562 15.984375 -14.125 L 15.984375 -17.265625 L 18.875 -17.265625 L 18.875 0 L 15.984375 0 L 15.984375 -3.21875 C 15.410156 -2.207031 14.5625 -1.367188 13.4375 -0.703125 C 12.3125 -0.046875 11.003906 0.28125 9.515625 0.28125 C 7.984375 0.28125 6.597656 -0.09375 5.359375 -0.84375 C 4.117188 -1.601562 3.140625 -2.664062 2.421875 -4.03125 C 1.710938 -5.394531 1.359375 -6.953125 1.359375 -8.703125 Z M 15.984375 -8.671875 C 15.984375 -9.972656 15.71875 -11.101562 15.1875 -12.0625 C 14.664062 -13.03125 13.957031 -13.769531 13.0625 -14.28125 C 12.164062 -14.800781 11.179688 -15.0625 10.109375 -15.0625 C 9.046875 -15.0625 8.070312 -14.804688 7.1875 -14.296875 C 6.300781 -13.796875 5.59375 -13.0625 5.0625 -12.09375 C 4.539062 -11.132812 4.28125 -10.003906 4.28125 -8.703125 C 4.28125 -7.378906 4.539062 -6.226562 5.0625 -5.25 C 5.59375 -4.269531 6.300781 -3.519531 7.1875 -3 C 8.070312 -2.488281 9.046875 -2.234375 10.109375 -2.234375 C 11.179688 -2.234375 12.164062 -2.488281 13.0625 -3 C 13.957031 -3.519531 14.664062 -4.269531 15.1875 -5.25 C 15.71875 -6.226562 15.984375 -7.367188 15.984375 -8.671875 Z M 15.984375 -8.671875 "/></g></g></g><g fill="#ffffff" fill-opacity="1"><g transform="translate(150.552751, 34.068605)"><g><path d="M 9.546875 -17.546875 C 11.035156 -17.546875 12.34375 -17.21875 13.46875 -16.5625 C 14.59375 -15.914062 15.429688 -15.101562 15.984375 -14.125 L 15.984375 -17.265625 L 18.875 -17.265625 L 18.875 0.375 C 18.875 1.945312 18.535156 3.347656 17.859375 4.578125 C 17.191406 5.804688 16.234375 6.769531 14.984375 7.46875 C 13.734375 8.164062 12.28125 8.515625 10.625 8.515625 C 8.351562 8.515625 6.457031 7.976562 4.9375 6.90625 C 3.425781 5.832031 2.535156 4.367188 2.265625 2.515625 L 5.109375 2.515625 C 5.421875 3.566406 6.070312 4.410156 7.0625 5.046875 C 8.050781 5.691406 9.238281 6.015625 10.625 6.015625 C 12.195312 6.015625 13.484375 5.519531 14.484375 4.53125 C 15.484375 3.550781 15.984375 2.164062 15.984375 0.375 L 15.984375 -3.25 C 15.410156 -2.238281 14.566406 -1.394531 13.453125 -0.71875 C 12.335938 -0.0507812 11.035156 0.28125 9.546875 0.28125 C 8.015625 0.28125 6.625 -0.09375 5.375 -0.84375 C 4.125 -1.601562 3.140625 -2.664062 2.421875 -4.03125 C 1.710938 -5.394531 1.359375 -6.953125 1.359375 -8.703125 C 1.359375 -10.460938 1.710938 -12.007812 2.421875 -13.34375 C 3.140625 -14.675781 4.125 -15.707031 5.375 -16.4375 C 6.625 -17.175781 8.015625 -17.546875 9.546875 -17.546875 Z M 15.984375 -8.671875 C 15.984375 -9.972656 15.71875 -11.101562 15.1875 -12.0625 C 14.664062 -13.03125 13.957031 -13.769531 13.0625 -14.28125 C 12.164062 -14.800781 11.179688 -15.0625 10.109375 -15.0625 C 9.046875 -15.0625 8.070312 -14.804688 7.1875 -14.296875 C 6.300781 -13.796875 5.59375 -13.0625 5.0625 -12.09375 C 4.539062 -11.132812 4.28125 -10.003906 4.28125 -8.703125 C 4.28125 -7.378906 4.539062 -6.226562 5.0625 -5.25 C 5.59375 -4.269531 6.300781 -3.519531 7.1875 -3 C 8.070312 -2.488281 9.046875 -2.234375 10.109375 -2.234375 C 11.179688 -2.234375 12.164062 -2.488281 13.0625 -3 C 13.957031 -3.519531 14.664062 -4.269531 15.1875 -5.25 C 15.71875 -6.226562 15.984375 -7.367188 15.984375 -8.671875 Z M 15.984375 -8.671875 "/></g></g></g><g fill="#ffffff" fill-opacity="1"><g transform="translate(171.851164, 34.068605)"><g><path d="M 18.1875 -9.296875 C 18.1875 -8.753906 18.15625 -8.175781 18.09375 -7.5625 L 4.28125 -7.5625 C 4.382812 -5.863281 4.96875 -4.535156 6.03125 -3.578125 C 7.09375 -2.617188 8.378906 -2.140625 9.890625 -2.140625 C 11.128906 -2.140625 12.164062 -2.425781 13 -3 C 13.832031 -3.582031 14.414062 -4.359375 14.75 -5.328125 L 17.84375 -5.328125 C 17.375 -3.671875 16.445312 -2.320312 15.0625 -1.28125 C 13.675781 -0.238281 11.953125 0.28125 9.890625 0.28125 C 8.253906 0.28125 6.789062 -0.0820312 5.5 -0.8125 C 4.207031 -1.550781 3.191406 -2.597656 2.453125 -3.953125 C 1.722656 -5.304688 1.359375 -6.878906 1.359375 -8.671875 C 1.359375 -10.453125 1.710938 -12.015625 2.421875 -13.359375 C 3.140625 -14.703125 4.144531 -15.734375 5.4375 -16.453125 C 6.726562 -17.179688 8.210938 -17.546875 9.890625 -17.546875 C 11.535156 -17.546875 12.988281 -17.1875 14.25 -16.46875 C 15.507812 -15.757812 16.476562 -14.78125 17.15625 -13.53125 C 17.84375 -12.28125 18.1875 -10.867188 18.1875 -9.296875 Z M 15.21875 -9.890625 C 15.21875 -10.984375 14.972656 -11.921875 14.484375 -12.703125 C 14.003906 -13.492188 13.347656 -14.09375 12.515625 -14.5 C 11.691406 -14.914062 10.773438 -15.125 9.765625 -15.125 C 8.316406 -15.125 7.082031 -14.660156 6.0625 -13.734375 C 5.039062 -12.816406 4.457031 -11.535156 4.3125 -9.890625 Z M 15.21875 -9.890625 "/></g></g></g><g fill="#ffffff" fill-opacity="1"><g transform="translate(191.385204, 34.068605)"><g><path d="M 23.203125 -17.578125 C 24.546875 -17.578125 25.738281 -17.300781 26.78125 -16.75 C 27.832031 -16.195312 28.660156 -15.363281 29.265625 -14.25 C 29.878906 -13.132812 30.1875 -11.773438 30.1875 -10.171875 L 30.1875 0 L 27.359375 0 L 27.359375 -9.765625 C 27.359375 -11.492188 26.929688 -12.8125 26.078125 -13.71875 C 25.222656 -14.632812 24.070312 -15.09375 22.625 -15.09375 C 21.132812 -15.09375 19.945312 -14.613281 19.0625 -13.65625 C 18.1875 -12.707031 17.75 -11.328125 17.75 -9.515625 L 17.75 0 L 14.90625 0 L 14.90625 -9.765625 C 14.90625 -11.492188 14.476562 -12.8125 13.625 -13.71875 C 12.78125 -14.632812 11.628906 -15.09375 10.171875 -15.09375 C 8.679688 -15.09375 7.492188 -14.613281 6.609375 -13.65625 C 5.734375 -12.707031 5.296875 -11.328125 5.296875 -9.515625 L 5.296875 0 L 2.421875 0 L 2.421875 -17.265625 L 5.296875 -17.265625 L 5.296875 -14.78125 C 5.859375 -15.6875 6.617188 -16.378906 7.578125 -16.859375 C 8.535156 -17.335938 9.59375 -17.578125 10.75 -17.578125 C 12.195312 -17.578125 13.476562 -17.25 14.59375 -16.59375 C 15.707031 -15.945312 16.535156 -14.992188 17.078125 -13.734375 C 17.566406 -14.953125 18.363281 -15.894531 19.46875 -16.5625 C 20.582031 -17.238281 21.828125 -17.578125 23.203125 -17.578125 Z M 23.203125 -17.578125 "/></g></g></g><g fill="#ffffff" fill-opacity="1"><g transform="translate(223.83692, 34.068605)"><g><path d="M 18.1875 -9.296875 C 18.1875 -8.753906 18.15625 -8.175781 18.09375 -7.5625 L 4.28125 -7.5625 C 4.382812 -5.863281 4.96875 -4.535156 6.03125 -3.578125 C 7.09375 -2.617188 8.378906 -2.140625 9.890625 -2.140625 C 11.128906 -2.140625 12.164062 -2.425781 13 -3 C 13.832031 -3.582031 14.414062 -4.359375 14.75 -5.328125 L 17.84375 -5.328125 C 17.375 -3.671875 16.445312 -2.320312 15.0625 -1.28125 C 13.675781 -0.238281 11.953125 0.28125 9.890625 0.28125 C 8.253906 0.28125 6.789062 -0.0820312 5.5 -0.8125 C 4.207031 -1.550781 3.191406 -2.597656 2.453125 -3.953125 C 1.722656 -5.304688 1.359375 -6.878906 1.359375 -8.671875 C 1.359375 -10.453125 1.710938 -12.015625 2.421875 -13.359375 C 3.140625 -14.703125 4.144531 -15.734375 5.4375 -16.453125 C 6.726562 -17.179688 8.210938 -17.546875 9.890625 -17.546875 C 11.535156 -17.546875 12.988281 -17.1875 14.25 -16.46875 C 15.507812 -15.757812 16.476562 -14.78125 17.15625 -13.53125 C 17.84375 -12.28125 18.1875 -10.867188 18.1875 -9.296875 Z M 15.21875 -9.890625 C 15.21875 -10.984375 14.972656 -11.921875 14.484375 -12.703125 C 14.003906 -13.492188 13.347656 -14.09375 12.515625 -14.5 C 11.691406 -14.914062 10.773438 -15.125 9.765625 -15.125 C 8.316406 -15.125 7.082031 -14.660156 6.0625 -13.734375 C 5.039062 -12.816406 4.457031 -11.535156 4.3125 -9.890625 Z M 15.21875 -9.890625 "/></g></g></g><g fill="#ffffff" fill-opacity="1"><g transform="translate(243.37096, 34.068605)"><g><path d="M 10.84375 -17.578125 C 12.945312 -17.578125 14.648438 -16.941406 15.953125 -15.671875 C 17.253906 -14.398438 17.90625 -12.566406 17.90625 -10.171875 L 17.90625 0 L 15.0625 0 L 15.0625 -9.765625 C 15.0625 -11.492188 14.628906 -12.8125 13.765625 -13.71875 C 12.910156 -14.632812 11.738281 -15.09375 10.25 -15.09375 C 8.726562 -15.09375 7.519531 -14.617188 6.625 -13.671875 C 5.738281 -12.734375 5.296875 -11.359375 5.296875 -9.546875 L 5.296875 0 L 2.421875 0 L 2.421875 -17.265625 L 5.296875 -17.265625 L 5.296875 -14.8125 C 5.859375 -15.695312 6.628906 -16.378906 7.609375 -16.859375 C 8.585938 -17.335938 9.664062 -17.578125 10.84375 -17.578125 Z M 10.84375 -17.578125 "/></g></g></g><g fill="#ffffff" fill-opacity="1"><g transform="translate(263.535134, 34.068605)"><g><path d="M 5.921875 -14.90625 L 5.921875 -4.734375 C 5.921875 -3.890625 6.097656 -3.289062 6.453125 -2.9375 C 6.816406 -2.59375 7.4375 -2.421875 8.3125 -2.421875 L 10.4375 -2.421875 L 10.4375 0 L 7.84375 0 C 6.25 0 5.050781 -0.363281 4.25 -1.09375 C 3.457031 -1.832031 3.0625 -3.046875 3.0625 -4.734375 L 3.0625 -14.90625 L 0.8125 -14.90625 L 0.8125 -17.265625 L 3.0625 -17.265625 L 3.0625 -21.625 L 5.921875 -21.625 L 5.921875 -17.265625 L 10.4375 -17.265625 L 10.4375 -14.90625 Z M 5.921875 -14.90625 "/></g></g></g></g></g></svg>