<svg xmlns="http://www.w3.org/2000/svg" xmlns:xlink="http://www.w3.org/1999/xlink" width="500" zoomAndPan="magnify" viewBox="0 0 375 374.999991" height="500" preserveAspectRatio="xMidYMid meet" version="1.0"><defs><clipPath id="8ba1766aa3"><path d="M 20.785156 83 L 352 83 L 352 288 L 20.785156 288 Z M 20.785156 83 " clip-rule="nonzero"/></clipPath></defs><rect x="-37.5" width="450" fill="#ffffff" y="-37.499999" height="449.999989" fill-opacity="1"/><rect x="-37.5" width="450" fill="#ffffff" y="-37.499999" height="449.999989" fill-opacity="1"/><path fill="#121d3a" d="M 52.296875 36.34375 C 46.648438 37.433594 41.195312 41.933594 38.503906 47.785156 L 37.15625 50.742188 L 36.960938 155.964844 L 36.835938 261.257812 L 76.609375 261.257812 L 76.484375 223.523438 C 76.289062 188.105469 76.226562 185.726562 75.199219 185.535156 C 74.109375 185.34375 74.046875 187.398438 74.046875 221.980469 L 74.046875 258.683594 L 39.402344 258.683594 L 39.402344 149.410156 L 57.363281 149.410156 C 72.890625 149.410156 75.328125 149.28125 75.328125 148.445312 C 75.328125 147.609375 72.890625 147.480469 57.363281 147.480469 L 39.402344 147.480469 L 39.402344 100.042969 C 39.402344 46.113281 39.144531 48.683594 44.53125 43.347656 C 49.859375 37.949219 47.292969 38.207031 101.117188 38.207031 L 148.464844 38.207031 L 148.464844 72.917969 L 74.046875 72.917969 L 74.046875 92.265625 C 74.046875 110.328125 74.109375 111.550781 75.199219 111.355469 C 76.226562 111.164062 76.289062 109.683594 76.484375 93.292969 L 76.609375 75.488281 L 185.675781 75.488281 L 185.675781 149.410156 L 222.246094 149.410156 L 222.246094 167.40625 C 222.246094 184.957031 222.246094 185.40625 223.53125 185.40625 C 224.8125 185.40625 224.8125 184.957031 224.8125 166.445312 L 224.8125 147.480469 L 206.398438 147.351562 L 187.921875 147.160156 L 187.730469 110.007812 L 187.601562 72.917969 L 150.390625 72.917969 L 150.390625 38.207031 L 259.457031 38.207031 L 259.457031 72.917969 L 222.246094 72.917969 L 222.375 92.652344 L 222.566406 112.449219 L 259.136719 112.707031 L 259.328125 167.023438 L 259.457031 221.402344 L 241.042969 221.53125 L 222.566406 221.722656 L 222.375 240.816406 C 222.246094 259.648438 222.246094 259.972656 223.53125 259.972656 C 224.8125 259.972656 224.8125 259.585938 224.8125 241.972656 L 224.8125 223.972656 L 262.023438 223.972656 L 262.023438 110.199219 L 224.8125 110.199219 L 224.8125 75.488281 L 262.023438 75.488281 L 262.023438 38.207031 L 320.085938 38.207031 L 323.292969 39.75 C 327.335938 41.613281 330.480469 44.699219 332.210938 48.492188 C 333.300781 50.933594 333.558594 52.992188 333.75 62.117188 L 334.007812 72.917969 L 315.980469 72.917969 C 298.335938 72.917969 297.953125 72.917969 297.953125 74.203125 C 297.953125 75.488281 298.273438 75.488281 317.070312 75.359375 L 336.125 75.167969 L 336.058594 63.273438 C 336.058594 52.605469 335.867188 51.0625 334.648438 48.363281 C 331.761719 41.804688 326.886719 37.691406 320.535156 36.34375 C 316.429688 35.507812 56.722656 35.441406 52.296875 36.34375 Z M 52.296875 36.34375 " fill-opacity="1" fill-rule="nonzero"/><g clip-path="url(#8ba1766aa3)"><path fill="#121d3a" d="M 123.191406 85.195312 C 113.757812 88.476562 106.828125 96.382812 103.042969 108.273438 C 101.3125 113.863281 101.890625 109.300781 92.652344 183.09375 C 85.722656 238.761719 84.183594 249.429688 82.769531 253.480469 C 79.5625 262.609375 75.136719 268.328125 68.722656 271.542969 L 64.871094 273.472656 L 45.046875 273.472656 C 28.878906 273.472656 24.902344 273.664062 23.425781 274.4375 C 20.347656 275.976562 19.898438 279.0625 22.398438 281.507812 L 23.941406 283.113281 L 43.699219 283.113281 C 69.621094 283.113281 72.890625 282.339844 81.101562 274.113281 C 87.132812 268.136719 91.496094 259.714844 93.613281 250.007812 C 94.125 247.503906 98.167969 216.261719 102.597656 180.585938 C 110.550781 116.4375 111.386719 111.164062 114.273438 105.378906 C 116.324219 101.460938 119.019531 98.246094 122.226562 96.058594 C 125.371094 93.9375 125.820312 93.808594 131.082031 93.808594 C 135.894531 93.808594 136.984375 94.003906 139.550781 95.546875 C 143.207031 97.730469 148.851562 103.773438 151.160156 108.015625 C 152.058594 109.75 165.917969 145.167969 181.828125 186.695312 C 197.804688 228.21875 212.046875 264.535156 213.457031 267.300781 C 219.105469 277.972656 228.34375 285.425781 238.222656 287.097656 C 253.8125 289.796875 267.863281 277.070312 271.648438 256.824219 C 271.96875 254.957031 275.882812 224.296875 280.308594 188.6875 C 285.699219 144.976562 288.777344 122.542969 289.675781 119.523438 C 292.628906 109.75 297.757812 102.679688 304.238281 99.464844 L 307.898438 97.667969 L 328.492188 97.34375 C 347.675781 97.023438 349.214844 96.960938 350.496094 95.800781 C 352.484375 94.003906 352.292969 90.722656 350.175781 89.054688 C 348.507812 87.769531 347.738281 87.703125 330.09375 87.703125 C 320.023438 87.703125 310.015625 88.023438 307.898438 88.347656 C 295.066406 90.46875 284.160156 102.421875 280.050781 118.878906 C 279.347656 121.707031 275.304688 152.238281 271.007812 186.695312 C 262.410156 256.179688 262.410156 256.179688 260.996094 260.488281 C 257.339844 271.285156 251.3125 277.136719 243.164062 277.777344 C 239.699219 278.097656 238.542969 277.90625 235.144531 276.363281 C 230.394531 274.242188 224.878906 268.585938 221.796875 262.867188 C 220.707031 260.742188 206.785156 225.003906 190.8125 183.480469 C 174.902344 141.957031 160.785156 105.960938 159.503906 103.515625 C 156.679688 98.308594 150.390625 91.238281 146.03125 88.410156 C 138.910156 83.847656 130.566406 82.691406 123.191406 85.195312 Z M 123.191406 85.195312 " fill-opacity="1" fill-rule="nonzero"/></g><path fill="#121d3a" d="M 296.675781 147.804688 C 296.675781 184.957031 296.675781 185.40625 297.957031 185.40625 C 299.242188 185.40625 299.242188 184.957031 299.242188 149.089844 L 299.242188 112.769531 L 333.886719 112.769531 L 333.886719 221.402344 L 315.921875 221.402344 C 298.40625 221.402344 297.957031 221.402344 297.957031 222.6875 C 297.957031 223.976562 298.40625 223.976562 315.921875 223.976562 L 333.949219 223.976562 L 333.757812 271.992188 C 333.5625 319.238281 333.5625 320.136719 332.21875 322.964844 C 331.511719 324.570312 329.585938 327.078125 327.917969 328.558594 C 322.65625 333.378906 324.261719 333.25 271.523438 333.25 L 224.820312 333.25 L 224.820312 298.539062 L 261.902344 298.410156 L 298.917969 298.21875 L 299.113281 279.0625 C 299.242188 260.292969 299.242188 259.972656 297.957031 259.972656 C 296.675781 259.972656 296.675781 260.355469 296.675781 277.96875 L 296.675781 295.96875 L 187.609375 295.96875 L 187.609375 221.402344 L 150.398438 221.402344 L 150.398438 203.40625 C 150.398438 187.847656 150.269531 185.40625 149.433594 185.40625 C 148.601562 185.40625 148.472656 187.976562 148.472656 204.691406 L 148.472656 223.976562 L 185.683594 223.976562 L 185.683594 298.539062 L 222.253906 298.539062 L 222.253906 333.25 L 113.828125 333.25 L 113.828125 298.539062 L 150.398438 298.539062 L 150.398438 258.6875 L 113.828125 258.6875 L 113.828125 149.410156 L 150.398438 149.410156 L 150.398438 130.449219 C 150.398438 114.121094 150.269531 111.484375 149.433594 111.484375 C 148.601562 111.484375 148.472656 114.058594 148.34375 129.289062 L 148.152344 147.160156 L 129.738281 147.355469 L 111.261719 147.484375 L 111.261719 261.257812 L 148.472656 261.257812 L 148.472656 295.96875 L 111.261719 295.96875 L 111.261719 333.3125 L 81.941406 333.121094 C 53.714844 332.929688 52.429688 332.863281 49.671875 331.578125 C 45.886719 329.84375 42.808594 326.691406 40.945312 322.644531 C 39.535156 319.6875 39.40625 318.59375 39.40625 308.953125 L 39.40625 298.539062 L 57.371094 298.539062 C 74.886719 298.539062 75.335938 298.539062 75.335938 297.253906 C 75.335938 295.96875 74.886719 295.96875 56.023438 295.96875 L 36.710938 295.96875 L 37.03125 307.988281 C 37.160156 314.671875 37.609375 321.101562 37.996094 322.324219 C 39.40625 326.566406 43.253906 330.808594 48.003906 333.25 L 52.429688 335.5 L 183.375 335.691406 C 272.421875 335.820312 315.730469 335.628906 318.679688 335.179688 C 321.117188 334.792969 324.132812 333.957031 325.417969 333.3125 C 328.496094 331.707031 332.34375 327.851562 334.078125 324.570312 L 335.488281 322 L 336.003906 216.90625 C 336.257812 159.117188 336.324219 111.484375 336.195312 111.035156 C 335.9375 110.394531 331.703125 110.199219 316.242188 110.199219 L 296.675781 110.199219 Z M 296.675781 147.804688 " fill-opacity="1" fill-rule="nonzero"/></svg>